<svg width="114" height="18" viewBox="0 0 114 18" fill="none" xmlns="http://www.w3.org/2000/svg"><g clip-path="url(#a)"><path d="M31.752 1.756c-.776-.918-1.3-1.428-2.515-1.428h-1.742c-.207 0-.377.188-.377.407v1.522c0 .225.18.4.375.4h.673c.526 0 .782.195 1.068.52l1.755 2.076 1.861-2.199-1.098-1.298Zm8.181 8.133h-.674c-.525 0-.782-.196-1.067-.522l-1.753-2.071-1.86 2.198 1.094 1.294c.777.919 1.3 1.428 2.516 1.428h1.742c.207 0 .376-.189.376-.406v-1.523c0-.225-.18-.398-.374-.398Zm.374-9.154v1.522c0 .225-.18.4-.374.4h-.674c-.525 0-.782.195-1.067.52l-6.44 7.61c-.776.92-1.3 1.43-2.515 1.43h-1.742c-.207 0-.377-.19-.377-.407v-1.523c0-.225.18-.398.375-.398h.673c.526 0 .782-.196 1.068-.522l6.439-7.61c.777-.919 1.3-1.429 2.516-1.429h1.742c.207 0 .376.188.376.407Zm62.643 7.794V3.06a.393.393 0 0 0-.384-.404h-.733c-.194 0-.375-.174-.375-.4V.734c0-.217.169-.405.377-.405h3.78c.194 0 .375.175.375.4v7.015c0 1.446.723 2.197 1.91 2.197 1.612 0 2.299-1.026 2.299-2.775V.731c0-.218.165-.397.374-.403h2.288a.394.394 0 0 1 .378.4v11.338c0 3.73-2.051 5.904-6.034 5.904-1.486 0-3.04-.226-3.862-.69-.165-.089-.247-.156-.302-.258-.057-.1-.078-.267-.079-.436-.005-.447-.011-1.92-.012-2.262-.001-.175.018-.27.078-.337.077-.088.176-.111.37-.111h1.433c.195 0 .307.01.381.077.088.08.112.176.157.37l.158.85a.48.48 0 0 0 .34.36c.357.112.62.117 1.141.117 2.222 0 3.17-1.345 3.17-3.434v-1.16c-.717.894-1.808 1.388-3.073 1.388-2.5 0-4.155-1.29-4.155-3.915Zm-16.662 3.687c-1.474 0-2.376-.743-2.376-2.492v-5.01c0-1.408-.818-2.175-1.818-2.175-1.535 0-2.4.789-2.4 2.777v6.497c0 .218-.163.403-.374.403h-2.287a.39.39 0 0 1-.378-.4V3.06c0-.217-.157-.404-.378-.404h-.719c-.193 0-.373-.174-.373-.4V.734c0-.217.168-.405.376-.405h3.206c.21 0 .396.113.466.362l.285.93c.82-1.013 1.89-1.589 3.463-1.589 2.299 0 3.97 1.307 3.97 3.92v5.21c0 .563.247.728.67.728h.432c.193 0 .374.173.374.398v1.529c0 .225-.18.4-.374.4h-1.765Zm-26.967 0c-1.473 0-2.376-.742-2.376-2.492v-5.01c0-1.408-.738-2.174-1.863-2.174-1.408 0-2.107.911-2.107 2.776v6.5c0 .189-.152.4-.374.4h-2.292c-.214 0-.373-.189-.373-.4V4.558c0-1.324-.82-2.018-1.841-2.018-1.5 0-2.144.983-2.144 2.776v6.497c0 .218-.163.403-.374.403H43.29c-.205 0-.377-.176-.377-.4V3.06c0-.217-.157-.404-.377-.404h-.72c-.193 0-.374-.174-.374-.4V.729c0-.217.17-.4.377-.4h3.205c.21 0 .397.113.466.362l.286.93C46.564.632 47.551.03 48.947.03c1.508 0 3.016.602 3.594 1.673C53.401.547 54.4.03 55.985.03c2.273 0 3.999 1.308 3.999 3.921v5.21c0 .563.247.728.672.728h.43c.194 0 .374.173.374.398v1.529c0 .225-.18.4-.373.4H59.32ZM17.273.728v7.037c0 1.408.765 2.175 1.854 2.175 1.535 0 2.357-.79 2.357-2.776V.731c0-.218.163-.397.371-.403h2.29a.392.392 0 0 1 .378.4v8.756c0 .217.157.405.377.405h.719c.193 0 .373.173.373.398v1.523c0 .217-.169.406-.376.406H23.43c-.896 0-1.49-.42-1.773-1.281-.786.957-1.927 1.513-3.403 1.513-2.3 0-4.02-1.306-4.02-3.92V3.06c0-.217-.164-.404-.384-.404h-.733c-.195 0-.375-.174-.375-.4V.734c0-.217.169-.405.376-.405h3.78c.194 0 .375.175.375.4Zm-4.86 11.082c0 .217-.17.406-.378.406H9.928c-.876 0-1.471-.41-1.755-1.231-.916.878-2.007 1.365-3.493 1.365-1.144 0-2.22-.4-2.843-.895C1.121 10.857.762 9.975.762 8.81c0-1.449.555-2.445 1.668-2.99 1.113-.545 2.602-.817 4.67-.817h.78v-.74c0-.717-.254-1.218-.62-1.501-.366-.284-.84-.425-1.506-.425-.52 0-.939.045-1.298.135-.193.074-.306.186-.335.335l-.163.875c-.045.194-.097.316-.157.37-.06.051-.186.077-.38.077H1.95c-.195 0-.322-.026-.382-.1-.067-.085-.082-.184-.066-.347l.13-2.263c.016-.21.043-.366.09-.448.067-.115.128-.169.292-.258C2.836.251 4.178.03 5.665.03c1.65 0 3.022.303 3.919.908.896.604 1.343 1.743 1.343 3.416v5.134c.003.216.159.4.377.4h.734c.193 0 .374.174.374.399v1.523ZM7.343 6.997c-1.083 0-1.926.134-2.553.403-.626.268-.94.754-.94 1.456 0 .897.624 1.344 1.644 1.344 1.424 0 2.386-.996 2.386-2.225v-.978h-.537Zm66.824-.768c0 1.731-.497 3.272-1.49 4.45-.993 1.18-2.353 1.77-4.369 1.77-2.016 0-3.372-.586-4.357-1.758-.987-1.172-1.478-2.76-1.478-4.462 0-1.737.491-3.286 1.478-4.45C64.937.613 66.293.03 68.309.03s3.376.583 4.37 1.749c.992 1.164 1.489 2.684 1.489 4.45Zm-3.225.023c0-2.598-.782-3.914-2.634-3.914-1.837 0-2.611 1.345-2.611 3.914 0 2.517.774 3.89 2.611 3.89 1.852 0 2.634-1.314 2.634-3.89Zm21.901 1.093c.106.847.439 1.53.94 2.036.46.464 1.285.723 2.36.723.932 0 1.829-.203 2.552-.463.421-.152.733-.291.852-.291.163 0 .246.104.246.313v1.457c0 .223-.15.374-.448.538-.708.411-2.183.791-3.457.791-2.15 0-3.693-.49-4.731-1.58-1.037-1.09-1.607-2.736-1.607-4.617 0-1.897.511-3.384 1.534-4.518C92.108.598 93.568.03 95.465.03c1.552 0 2.728.366 3.572 1.052a3.512 3.512 0 0 1 1.287 2.745c0 1.062-.406 2.081-1.22 2.761-.814.678-2.034 1.055-3.662 1.055-.787 0-1.769-.145-2.598-.298Zm-.046-2.06c.76.19 1.673.32 2.375.32 1.583 0 2.374-.658 2.374-1.8 0-.939-.694-1.646-2.083-1.646-1.583 0-2.47 1.12-2.666 3.125Z" fill="#666"/></g><defs><clipPath id="a"><path fill="#fff" transform="translate(.75)" d="M0 0h112.5v18H0z"/></clipPath></defs></svg>