<svg width="102" height="14" viewBox="0 0 102 14" fill="none" xmlns="http://www.w3.org/2000/svg"><g clip-path="url(#a)"><path fill-rule="evenodd" clip-rule="evenodd" d="m51.469 6.1 5.014 6.78H53.37L49.72 7.868 48.356 9.28v3.6h-2.592V1.103h2.592v5.15l4.779-5.15h3.13L51.468 6.1Zm8.672 4.425h5.522v2.356H57.55V1.102h2.59v9.423Zm28.225-9.423h2.558v11.779h-2.205l-5.703-7.488v7.488h-2.558V1.102h2.389l5.52 7.253V1.102ZM42.763 9.314l1.649 1.666c-1.212 1.295-2.558 2.103-4.83 2.103-3.466 0-6.04-2.675-6.04-6.058v-.033C33.541 3.643 36.064.9 39.682.9c2.221 0 3.55.74 4.645 1.818l-1.65 1.901c-.908-.824-1.834-1.33-3.011-1.33-1.986 0-3.416 1.65-3.416 3.669v.034c0 2.019 1.396 3.702 3.416 3.702 1.346 0 2.17-.539 3.096-1.38ZM71.416 7.95l1.565-3.82 1.565 3.82h-3.13Zm.404-6.933-5.048 11.863h2.642l1.077-2.642h4.98l1.077 2.642h2.71L74.208 1.018h-2.39Zm30.112 9.558v2.305h-8.969V1.102h8.885v2.305h-6.31v2.39h5.553v2.305h-5.553v2.474h6.394Zm-87.503-.05h5.522v2.355h-8.113V1.102h2.591v9.423ZM7.438 9.33c0 .875-.69 1.278-1.835 1.278H2.524V8.02H5.52c1.33 0 1.919.487 1.919 1.278v.034ZM2.524 3.374h2.558c1.093 0 1.7.437 1.7 1.211v.034c0 .875-.724 1.245-1.869 1.245H2.524v-2.49Zm5.284 3.348c.841-.47 1.548-1.211 1.548-2.54v-.034c0-.808-.27-1.464-.808-2.002-.673-.674-1.733-1.044-3.08-1.044H0v11.779h5.603c2.659 0 4.409-1.077 4.409-3.23v-.035c0-1.581-.841-2.372-2.204-2.894ZM25.7 7.951l1.565-3.82 1.565 3.82H25.7Zm.404-6.933-5.048 11.863h2.642l1.077-2.642h4.98l1.078 2.642h2.708L28.493 1.018h-2.389Z" fill="#666"/></g><defs><clipPath id="a"><path fill="#fff" transform="translate(0 .9)" d="M0 0h102v12.199H0z"/></clipPath></defs></svg>