<svg width="94" height="24" viewBox="0 0 94 24" fill="none" xmlns="http://www.w3.org/2000/svg"><g clip-path="url(#a)"><path d="M11.487.094c1.645-.023 3.275.32 4.77 1.005.821.374 1.195 1.37.833 2.22-.27.636-.883 1.041-1.626 1.008a1.149 1.149 0 0 1-.434-.113 7.958 7.958 0 0 0-3.501-.756c-4.55.057-8.203 3.93-8.145 8.634a8.672 8.672 0 0 0 1.58 4.916 8.365 8.365 0 0 0 3.333 2.785 7.955 7.955 0 0 0 3.443.728c2.392-.03 4.651-1.13 6.198-3.02a1.583 1.583 0 0 1 2.285-.197c.685.6.77 1.665.19 2.374-2.153 2.633-5.3 4.166-8.632 4.207a11.082 11.082 0 0 1-4.795-1.016 11.637 11.637 0 0 1-4.64-3.877 12.101 12.101 0 0 1-2.207-6.86c-.04-3.178 1.12-6.18 3.264-8.454C5.117 1.86 7.295.683 9.669.264a11.25 11.25 0 0 1 1.818-.17Zm74.857 7.683c4.657 0 7.543 3.596 7.51 7.77l-.032 6.04c0 .882-.656 1.594-1.509 1.594-.853 0-1.542-.712-1.542-1.594v-.68c-.688 1.188-2.59 2.41-4.723 2.41-3.968 0-7.249-3.46-7.249-7.77s3.38-7.77 7.545-7.77Zm-38.093 0c1.837 0 3.346.407 4.855 1.696.295.272.492.713.492 1.154 0 .271-.099.577-.295.848-.263.34-.656.543-1.05.543a1.477 1.477 0 0 1-.886-.305 5.014 5.014 0 0 0-3.116-1.052c-2.624 0-4.362 2.24-4.362 4.886s1.738 4.886 4.362 4.886c1.575 0 2.69-.645 3.674-1.56.262-.239.558-.34.853-.34.36 0 .754.135 1.017.44a1.2 1.2 0 0 1 .328.85c0 .372-.132.745-.427 1.085-1.148 1.323-3.345 2.409-5.445 2.409-4.165 0-7.51-3.461-7.51-7.77 0-4.31 3.345-7.77 7.51-7.77Zm20.318.596c.854 0 1.55.688 1.55 1.572v11.524c0 .884-.664 1.637-1.519 1.637-.854 0-1.55-.753-1.55-1.637v-.72c-.918 1.44-2.69 2.488-4.526 2.488-3.608 0-5.697-2.848-5.697-6.679V9.944c0-.884.665-1.571 1.52-1.571.854 0 1.55.687 1.55 1.571v6.516c0 2.226 1.203 3.929 3.481 3.929 2.342 0 3.672-1.867 3.672-3.962V9.945c0-.884.664-1.572 1.519-1.572ZM74.743.007c.885 0 1.574.746 1.574 1.662v19.884c0 .916-.689 1.628-1.574 1.628a1.608 1.608 0 0 1-1.608-1.628V1.669c0-.916.722-1.662 1.608-1.662Zm-49.8 7.905c.886 0 1.608.747 1.608 1.663v11.944c0 .916-.722 1.662-1.607 1.662-.886 0-1.574-.746-1.574-1.662V9.575c0-.916.689-1.662 1.574-1.662Zm13.7-.135c.788 0 1.411.644 1.411 1.459 0 .814-.623 1.493-1.41 1.493-2.591 0-5.051 1.459-5.051 4.377v6.412c0 .917-.722 1.663-1.608 1.663-.885 0-1.607-.746-1.607-1.663v-9.621c0-.186.175-.314.356-.272.186.044.379.067.577.067.987 0 1.845-.571 2.282-1.412v.008c1.311-1.799 2.788-2.511 5.05-2.511Zm47.7 2.952c-2.624 0-4.33 2.171-4.33 4.818 0 2.646 1.706 4.818 4.33 4.818s4.33-2.171 4.33-4.818-1.706-4.818-4.33-4.818ZM24.944.516c.985 0 1.805.848 1.805 1.866 0 1.018-.82 1.832-1.804 1.832-.984 0-1.771-.814-1.771-1.832 0-1.018.787-1.866 1.77-1.866Z" fill="#666"/></g><defs><clipPath id="a"><path fill="#fff" transform="translate(.138)" d="M0 0h93.724v24H0z"/></clipPath></defs></svg>