<svg width="84" height="18" viewBox="0 0 84 18" fill="none" xmlns="http://www.w3.org/2000/svg"><g clip-path="url(#a)"><path fill-rule="evenodd" clip-rule="evenodd" d="M.942 9.042C.942 4.135 4.796.28 9.756.28c2.617 0 5.06 1.135 6.604 3.026.285.358.388.592.388.848 0 .492-.44.9-.95.9a1.063 1.063 0 0 1-.849-.408C13.61 2.98 11.872 2.13 9.785 2.13c-3.854 0-6.757 2.975-6.757 6.91 0 3.928 2.903 6.912 6.757 6.912 2.076 0 3.823-.868 5.164-2.515a1.037 1.037 0 0 1 .848-.409c.512 0 .95.41.95.9 0 .256-.102.49-.387.849-1.494 1.902-3.958 3.026-6.604 3.026-4.96 0-8.814-3.854-8.814-8.762Zm19.466 7.689V1.601c0-.594.409-1.055 1.001-1.055.563 0 1.003.46 1.003 1.053v14.385h7.218c.541 0 .92.389.92.9a.9.9 0 0 1-.92.9h-8.17a1.034 1.034 0 0 1-1.052-1.053ZM55.29 8.614h3.875c2.137 0 3.414-1.188 3.414-3.11 0-1.9-1.308-3.127-3.414-3.127h-3.875v6.237Zm10.786 8.29c0 .49-.409.9-.951.9-.306 0-.593-.185-.869-.541L59.146 10.4h-3.855v6.37a1.017 1.017 0 0 1-1.002 1.032c-.592 0-1.001-.46-1.001-1.032V1.6c0-.563.438-1.034 1.023-1.034h4.927c3.24 0 5.418 1.974 5.418 4.908 0 2.26-1.288 3.957-3.364 4.622l4.448 6.03c.204.267.336.523.336.779h.001Zm16.511 0a.913.913 0 0 1-.92.9c-.255 0-.511-.133-.798-.41l-8.086-8.27c-.184-.205-.307-.439-.307-.695 0-.256.133-.491.337-.716L80.156.7c.305-.286.511-.41.767-.41.51 0 .92.41.92.901 0 .285-.134.511-.441.797l-6.717 6.441 7.525 7.728c.276.236.378.44.378.748ZM71.905 1.345V16.75c0 .592-.44 1.053-1.003 1.053-.592 0-1.002-.46-1.002-1.053V1.344c0-.592.41-1.054 1.002-1.054.573 0 1.003.46 1.003 1.054ZM49.403 16.147 42.91.945C42.706.485 42.4.25 41.96.25c-.44 0-.746.236-.95.695l-6.503 15.203c-.103.256-.154.46-.154.643 0 .512.44.973.971.973.44 0 .768-.256.95-.665l1.24-2.945.04-.113.745-1.798 3.65-8.987 3.548 8.987.768 1.798 1.36 3.058c.203.409.51.665.968.665.512 0 .972-.46.972-.973.022-.184-.03-.389-.162-.643Z" fill="#666"/></g><defs><clipPath id="a"><path fill="#fff" transform="translate(.942 .25)" d="M0 0h82.115v17.5H0z"/></clipPath></defs></svg>