<svg width="66" height="24" viewBox="0 0 66 24" fill="none" xmlns="http://www.w3.org/2000/svg"><g clip-path="url(#a)"><path d="M58.444 3.252c-.447.457-.707 1.101-.769 1.932h4.759a3.498 3.498 0 0 0-.23-1.153 2.482 2.482 0 0 0-.529-.831 2.262 2.262 0 0 0-.758-.488 2.493 2.493 0 0 0-.873-.156c-.623 0-1.153.228-1.6.696Zm3.075 6.545a1.62 1.62 0 0 0 .748-.987h3.18c-.364 1.237-.998 2.182-1.902 2.847-.893.665-1.974.998-3.22.998-3.886 0-5.83-2.172-5.83-6.525 0-.925.126-1.756.385-2.504a5.323 5.323 0 0 1 1.101-1.922A4.742 4.742 0 0 1 57.748.478c.686-.28 1.486-.426 2.39-.426 1.797 0 3.158.592 4.083 1.777.924 1.184 1.392 2.971 1.392 5.35H57.58c.042.915.302 1.631.77 2.172.467.53 1.07.8 1.828.8.509 0 .956-.115 1.34-.354Zm-13.07 4.821c-.218.218-.54.405-.956.54-.405.136-1.008.281-1.797.437-1.226.239-2.057.56-2.525.935-.447.384-.686.935-.686 1.652 0 1.226.686 1.85 2.068 1.85.54 0 1.05-.094 1.517-.292a3.848 3.848 0 0 0 1.215-.769c.333-.322.613-.706.821-1.142.208-.437.312-.904.312-1.393l.031-1.818Zm2.733-7.18c.53.552.914 1.237 1.163 2.048.24.82.353 1.745.353 2.774v10.462H48.74a7.202 7.202 0 0 1-.26-1.486c-.498.582-1.174 1.05-1.995 1.403-.83.343-1.787.52-2.877.52-1.86 0-3.221-.426-4.084-1.268-.862-.842-1.288-1.933-1.288-3.273 0-1.184.187-2.14.55-2.847a4.191 4.191 0 0 1 1.549-1.662c.654-.405 1.434-.696 2.337-.883.904-.197 1.891-.374 2.962-.53 1.07-.156 1.786-.364 2.16-.613.364-.26.551-.686.551-1.267 0-.54-.239-.956-.737-1.258-.489-.3-1.143-.457-1.974-.457-.987 0-1.684.229-2.11.676-.426.446-.696 1.039-.8 1.776h-3.968c.02-.852.166-1.63.415-2.348.25-.717.655-1.33 1.205-1.85.561-.519 1.289-.913 2.182-1.194.894-.28 1.985-.416 3.273-.416 1.257 0 2.338.146 3.22.437.884.29 1.59.706 2.13 1.257ZM33.166 22.723h-4.457l-5.756-16.54h4.748l3.366 10.92 3.408-10.92h4.478l-5.787 16.54ZM17.654 6.182h4.25v16.54h-4.25V6.182Zm0-6.057h4.25v4.072h-4.25V.125Zm-9.433 19.47c-1.07 0-1.943-.468-2.619-1.403-.675-.925-1.007-2.13-1.007-3.605 0-3.408 1.215-5.112 3.667-5.112 2.369 0 3.564 1.787 3.564 5.372 0 1.413-.343 2.556-1.029 3.428-.686.883-1.548 1.32-2.576 1.32Zm3.438-11.263C10.465 6.608 8.865 5.745 6.88 5.745c-1.039 0-1.974.208-2.795.613a5.853 5.853 0 0 0-2.077 1.767c-.572.768-.998 1.662-1.289 2.711-.301 1.04-.447 2.193-.447 3.44 0 1.392.177 2.638.52 3.74.353 1.09.831 2.026 1.444 2.784a6.011 6.011 0 0 0 2.192 1.745c.852.406 1.787.613 2.816.613 2.005 0 3.501-.82 4.478-2.462l.041 2.026h4.084V.125h-4.188v8.207Zm42.64 8.312h11.044v-2.047H54.298v2.047Z" fill="#666"/></g><defs><clipPath id="a"><path fill="#fff" transform="translate(.272)" d="M0 0h65.454v24H0z"/></clipPath></defs></svg>