<svg width="100" height="30" viewBox="0 0 100 30" fill="none" xmlns="http://www.w3.org/2000/svg"><path d="M91.79 19.502c2.105.034 4.21.017 6.316.017 1.54 0 2.122-.787 1.814-2.277-.668-2.773-2.944-4.793-5.837-4.793-2.02 0-3.424.96-4.45 2.209-2.363 2.841-1.798 6.898 1.249 9.123 2.088 1.524 5.7 1.13 7.549-.633.958-.89 0-2.79-1.917-1.506-1.695 1.146-4.331.479-5.221-1.301-.308-.6-.291-.856.496-.84Zm-.686-2.739c.668-1.215 1.678-1.951 3.082-1.934 1.489.017 2.567.804 3.337 2.054.172.342.035.496-.342.48a320.49 320.49 0 0 0-5.734 0c-.411.016-.565-.19-.343-.6ZM85.353 15.274a1.454 1.454 0 1 0 0-2.91h-.462l-.052-1.37c-.017-.924-.53-1.523-1.335-1.54-.804-.034-1.386.548-1.386 1.472-.017 3.646 0 7.292-.017 10.955 0 1.096.53 1.832 1.335 2.43.804.583 1.968.497 2.413-.222.445-.718 0-1.42-.633-1.883-.325-.24-.377-.496-.377-.684l.052-6.231h.462v-.017ZM71.643 19.502c2.105.034 4.21.017 6.316.017 1.54 0 2.123-.787 1.814-2.277-.667-2.773-2.944-4.793-5.837-4.793-2.02 0-3.423.96-4.45 2.209-2.362 2.841-1.797 6.898 1.25 9.123 2.088 1.524 5.7 1.13 7.548-.633.959-.89 0-2.79-1.917-1.506-1.695 1.146-4.33.479-5.22-1.301-.309-.6-.292-.856.496-.84Zm-.685-2.739c.668-1.215 1.677-1.951 3.081-1.934 1.49.017 2.568.804 3.338 2.054.171.342.034.496-.342.48a320.5 320.5 0 0 0-5.735 0c-.41.016-.565-.19-.342-.6ZM65.138 15.274a1.454 1.454 0 1 0 0-2.91h-.462l-.052-1.37c-.017-.924-.53-1.523-1.335-1.54-.804-.034-1.386.548-1.386 1.472-.017 3.646 0 7.292-.017 10.955 0 1.096.53 1.832 1.335 2.43.804.583 1.968.497 2.414-.222.444-.718 0-1.42-.634-1.883-.325-.24-.377-.496-.377-.684l.052-6.231h.462v-.017ZM17.5 15.274a1.454 1.454 0 1 0 0-2.91h-.463l-.051-1.37c-.017-.924-.53-1.523-1.335-1.54-.805-.034-1.387.548-1.387 1.472-.017 3.646 0 7.292-.017 10.955 0 1.096.53 1.832 1.335 2.43.805.583 1.969.497 2.414-.222.445-.718 0-1.42-.633-1.883-.326-.24-.377-.496-.377-.684l.051-6.231h.462v-.017ZM3.617 19.502c2.106.034 4.211.017 6.317.017 1.54 0 2.122-.787 1.814-2.277-.667-2.773-2.944-4.793-5.837-4.793-2.02 0-3.424.96-4.45 2.209-2.363 2.841-1.798 6.898 1.249 9.123 2.088 1.524 5.7 1.13 7.549-.633.958-.89 0-2.79-1.917-1.506-1.695 1.146-4.331.479-5.221-1.301-.291-.6-.274-.856.496-.84Zm-.667-2.739c.667-1.215 1.677-1.951 3.08-1.934 1.49.017 2.568.804 3.339 2.054.17.342.034.496-.343.48-.975-.018-4.793-.018-5.734 0-.41.016-.565-.19-.342-.6ZM51.923.707c-2.927.103-5.084 1.455-6.693 3.817-1.386 1.763-1.832 4.245-1.3 5.016.752.924 3.542-.052 4.74-.77 2.465-1.507 3.903-3.732 4.571-6.505.24-.959-.308-1.592-1.318-1.558Zm-5.82 6.624c1.061-2.07 2.413-3.474 4.673-4.125-1.027 2.037-2.38 3.424-4.673 4.125ZM37.972.93c-.497-.103-.873-.035-1.147.17-.257.206-.89.993-.53 3.048.444 2.259 1.762 3.663 3.988 4.245 1.027.274 1.592-.017 1.831-1.045.702-3.012-1.13-5.854-4.142-6.419Zm.445 2.413c1.164.41 1.729 1.3 1.694 2.67-1.18-.428-1.797-1.386-1.694-2.67ZM23.97 19.502c2.105.034 4.21.017 6.316.017 1.54 0 2.123-.787 1.815-2.277-.668-2.773-2.945-4.793-5.837-4.793-2.02 0-3.424.96-4.451 2.209-2.362 2.841-1.797 6.898 1.25 9.123 2.088 1.524 5.7 1.13 7.548-.633.959-.89 0-2.79-1.917-1.506-1.694 1.146-4.33.479-5.22-1.301-.309-.6-.292-.856.496-.84Zm-.685-2.739c.668-1.215 1.678-1.951 3.081-1.934 1.49.017 2.568.804 3.338 2.054.171.342.034.496-.342.48a320.5 320.5 0 0 0-5.735 0c-.41.016-.564-.19-.342-.6ZM56.579 20.34c-.907 1.764-3.526 2.448-5.22 1.302-1.9-1.284-2.877.633-1.918 1.506 1.849 1.763 5.46 2.157 7.549.633 3.047-2.225 3.612-6.282 1.25-9.123-1.028-1.25-2.431-2.208-4.451-2.208-2.893 0-5.17 2.02-5.837 4.792-.308 1.49.274 2.277 1.814 2.277 2.106 0 4.211.034 6.317-.017.787-.017.804.24.496.839Zm-.171-2.96a320.5 320.5 0 0 0-5.735 0c-.376 0-.513-.138-.342-.48.77-1.232 1.849-2.02 3.338-2.054 1.42-.017 2.414.719 3.081 1.934.24.394.086.6-.342.6ZM40.265 12.45h-.119c-1.028 0-2.14.273-2.945.787a.244.244 0 0 1-.36-.103c-.239-.462-.787-.684-1.283-.684-.719 0-1.318.513-1.438 1.198 0 .034-.017.068-.017.102 0 .052-.017.103-.017.155V27.89c0 .804.668 1.437 1.472 1.403.805 0 1.455-.668 1.455-1.472v-3.766c0-.085.086-.154.171-.12.497.206 1.917.754 2.842.754 1.746-.035 3.27-.754 4.348-1.866a6.022 6.022 0 0 0 1.797-4.314c.034-3.304-2.62-5.991-5.906-6.06Zm-.085 9.637c-1.763.017-3.253-1.507-3.287-3.338-.034-1.969 1.455-3.595 3.252-3.56 1.815.016 3.219 1.54 3.236 3.474.017 1.832-1.455 3.407-3.201 3.424Z" fill="#666"/></svg>