<svg width="54" height="30" viewBox="0 0 54 30" fill="none" xmlns="http://www.w3.org/2000/svg"><g clip-path="url(#a)" fill="#666"><path d="M4.476 14.71c0-1.033-.843-1.849-1.876-1.849S.725 13.677.725 14.71c0 1.034.842 1.875 1.876 1.875a1.878 1.878 0 0 0 1.875-1.875Z"/><path d="M11.384 14.96v-4.636c0-2.958-1.602-5.078-4.363-5.078-1.12 0-2.2.507-2.874 1.226l.227-1.727V2.273C4.374 1.298 3.576.5 2.6.5 1.625.5.826 1.298.826 2.273v2.473c.887 6.795.916 6.673.916 6.673.06.473.384.828.857.828s.798-.355.857-.828l.074-.434c.035-.232.086-.588.162-1.136C4.057 8.3 4.88 7.91 6.157 7.91c1.53 0 2.268 1.133 2.268 2.563v4.487c0 .814.666 1.479 1.48 1.479s1.48-.665 1.48-1.479Zm12.105-.025V6.848c0-.814-.666-1.504-1.479-1.504-.813 0-1.504.69-1.504 1.504v4.463c0 1.306-.69 2.564-2.342 2.564-1.529 0-2.219-1.134-2.219-2.564V6.848c0-.814-.666-1.504-1.479-1.504-.814 0-1.504.69-1.504 1.504v4.61c0 2.96 1.603 5.08 4.363 5.08 1.307 0 2.515-.692 3.23-1.603 0 .813.641 1.503 1.455 1.503.814 0 1.48-.69 1.48-1.503Zm8.171-8.132c0 .498-.276.93-.683 1.155 0 0-2.712 1.34-2.712 2.836v4.216c0 .813-.666 1.48-1.48 1.48-.813 0-1.503-.666-1.503-1.48V6.9c0-.813.69-1.505 1.504-1.505.813 0 1.455.624 1.455 1.437 1.2-1.265 1.4-1.396 2.093-1.356.732.044 1.326.595 1.326 1.328Zm7.143 0c0 .498-.276.93-.683 1.155 0 0-2.712 1.34-2.712 2.836v4.216c0 .813-.666 1.48-1.48 1.48-.813 0-1.503-.666-1.503-1.48V6.9c0-.813.69-1.505 1.504-1.505.813 0 1.454.624 1.454 1.437 1.202-1.265 1.4-1.396 2.093-1.356.732.044 1.327.595 1.327 1.328Zm5.42-1.55c-.766 0-2.092.065-3.16.602-.547.275-.944.555-.944 1.1 0 .691.543 1.258 1.26 1.258.15 0 .322-.028.513-.072.643-.148 1.126-.319 2.061-.319 2.048 0 2.517.47 2.517 2.42-.839-.717-1.975-.939-3.036-.939-2.172 0-3.95 1.308-3.95 3.605 0 2.073 1.826 3.653 3.851 3.653 1.21 0 2.642-.47 3.235-1.604 0 .79.566 1.505 1.382 1.505.814 0 1.505-.692 1.505-1.505V9.674c0-3.334-2.197-4.42-5.233-4.42Zm.1 9.038c-.864 0-1.902-.347-1.902-1.383 0-1.038 1.062-1.334 1.902-1.334.863 0 2.147.223 2.147 1.334 0 1.061-1.308 1.383-2.147 1.383ZM38.55 18.208c-1.676 0-3.082.839-3.797 1.85-.715-1.135-1.873-1.85-3.452-1.85-1.306 0-2.39.69-3.105 1.602 0-.813-.642-1.503-1.456-1.503-.813 0-1.478.69-1.478 1.503v8.112c0 .813.665 1.48 1.478 1.48.814 0 1.48-.666 1.48-1.48v-4.487c0-1.307.567-2.564 2.219-2.564 1.528 0 2.144 1.134 2.144 2.564v4.487c0 .813.69 1.479 1.504 1.479.814 0 1.48-.666 1.48-1.48v-4.486c0-1.307.592-2.564 2.218-2.564 1.53 0 2.146 1.134 2.146 2.564v4.487c0 .813.665 1.479 1.48 1.479.812 0 1.503-.666 1.503-1.48v-4.733c0-2.959-1.381-4.98-4.364-4.98Zm-20.495 0c-3.107 0-5.645 2.54-5.645 5.646s2.538 5.646 5.645 5.646c3.106 0 5.646-2.54 5.646-5.646s-2.54-5.646-5.646-5.646Zm0 8.629c-1.701 0-2.662-1.331-2.662-2.983 0-1.652.961-2.984 2.662-2.984s2.688 1.332 2.688 2.984-.987 2.983-2.688 2.983ZM4.431 21.804c.228-.269.51-.487.841-.638a2.727 2.727 0 0 1 1.141-.233c.428 0 .81.082 1.145.233.333.151.63.37.861.64.279.243.398.49.64.618.371.2.812.219 1.235.013a1.4 1.4 0 0 0 .583-.554c.195-.359.324-.788.078-1.289 0 0-.143-.283-.529-.666a5.666 5.666 0 0 0-4.013-1.658c-.781 0-1.527.159-2.207.445A5.745 5.745 0 0 0 2.4 19.928a5.68 5.68 0 0 0-1.22 1.795 5.572 5.572 0 0 0-.443 2.107H.732l.002.043-.002.044h.005A5.578 5.578 0 0 0 2.4 27.818a5.667 5.667 0 0 0 4.013 1.658 5.674 5.674 0 0 0 4.014-1.658c.385-.383.528-.667.528-.667.246-.5.117-.928-.077-1.288a1.398 1.398 0 0 0-.584-.554 1.329 1.329 0 0 0-1.235.012c-.242.13-.361.375-.64.619a2.49 2.49 0 0 1-.86.64 2.756 2.756 0 0 1-1.146.234c-.428 0-.81-.083-1.14-.234a2.39 2.39 0 0 1-.842-.638 2.82 2.82 0 0 1-.518-.948 3.687 3.687 0 0 1 0-2.24c.116-.358.29-.68.518-.95ZM51.393 5.613c0-.053-.048-.095-.1-.095H50.1a.094.094 0 0 0-.094.095c0 .052.042.1.094.1h.492V7.12c0 .057.047.1.104.1.058 0 .104-.043.104-.1V5.713h.492c.053 0 .1-.048.1-.1Zm1.883 1.507V5.597c0-.052-.052-.1-.105-.1a.09.09 0 0 0-.088.059c-.503 1.114-.612 1.35-.612 1.35s-.037-.085-.613-1.345a.095.095 0 0 0-.093-.063.1.1 0 0 0-.1.1V7.12a.1.1 0 0 0 .1.1.103.103 0 0 0 .098-.1V6.031s.079.168.519 1.136c.016.037.047.053.089.053.042 0 .073-.016.09-.053.004-.011.344-.795.512-1.14V7.12a.1.1 0 0 0 .098.1c.058 0 .105-.043.105-.1Z"/></g><defs><clipPath id="a"><path fill="#fff" transform="translate(.725 .5)" d="M0 0h52.551v29H0z"/></clipPath></defs></svg>