<svg width="92" height="20" viewBox="0 0 92 20" fill="none" xmlns="http://www.w3.org/2000/svg"><g clip-path="url(#a)"><path fill-rule="evenodd" clip-rule="evenodd" d="M35.636.88c3.383 0 4.582 1.28 4.582 4.27v1.068H36.75V5.172c0-.705-.3-.982-1.028-.982-.727 0-1.006.277-1.006.982v9.61c0 .705.279.983 1.006.983.728 0 1.028-.277 1.028-.982v-3.951h-1.028V8.418h4.495v6.386c0 2.99-1.198 4.229-4.366 4.229-3.425 0-4.646-1.239-4.646-4.229V5.151c0-2.99 1.22-4.272 4.432-4.272ZM12.34 1.07v13.156c0 1.26.279 1.538 1.007 1.538.706 0 .984-.277.984-1.538V1.071h3.532v13.712c0 3.396-1.434 4.229-4.516 4.229-3.104 0-4.539-.833-4.539-4.23V1.073h3.533Zm-5.354 0v13.712c0 3.011-1.37 4.143-4.86 4.143H.5v-3.16l1.413-.022c.963-.021 1.52-.491 1.52-1.538V1.071h3.553Zm84.477-.04v3.59h-2.417v14.1h-3.55v-14.1h-3.053v14.1h-3.55v-14.1h-2.417V1.03h14.987Zm-35.104 0 2.125 12.86h.098l2.016-12.86h4.863v17.69h-3.42V7.65h-.072l-1.866 11.073h-3.249L55.01 7.713h-.071v11.009h-3.4V1.03h4.82Zm17.883 0 2.56 17.69h-3.485l-.41-3.804h-2.301l-.495 3.805h-3.487L69.358 1.03h4.884ZM23.6 1.08l2.44 10.559h.043V1.079h3.402v17.57H25.59L23.108 8.623h-.042v10.025h-3.381V1.08h3.916Zm21.392 7.343.967 7.598h.061l.988-7.598h2.983l-1.747 10.225h-4.466l-1.79-10.225h3.004Zm26.892-3.762h-.104l-.895 7.848h1.765l-.766-7.848Z" fill="#666"/></g><defs><clipPath id="a"><path fill="#fff" transform="translate(.5 .877)" d="M0 0h91v18.246H0z"/></clipPath></defs></svg>