<svg width="92" height="24" viewBox="0 0 92 24" fill="none" xmlns="http://www.w3.org/2000/svg"><g clip-path="url(#a)" fill="#666"><path d="M12.899 6.257H6.785V0H.667v18.768h6.118v-6.256h6.114V6.257ZM19.018 6.25h-6.115V-.001h6.115v6.253ZM19.018 18.772h-6.115v-6.26h6.115v6.26ZM28.413 18.772H22.3V-.002h6.114v18.774ZM34.528 11.599c0-3.55 1.74-5.474 4.776-5.474 1.835 0 3.005.593 3.69 1.77V6.27h1.34v11.993c0 3.47-1.825 5.396-4.982 5.396-1.96 0-3.252-.642-4.061-2.022l1.052-.778c.327.52.787.937 1.33 1.206.544.27 1.15.38 1.752.32 2.462 0 3.565-1.642 3.565-4.122v-1.017c-.684 1.147-1.854 1.672-3.69 1.672-3.175 0-4.776-2.1-4.776-5.522l.004-1.798Zm8.463 1.82v-1.976c0-2.45-1.052-4.044-3.594-4.044-2.32 0-3.518 1.468-3.518 4.2v1.798c0 2.625 1.15 4.248 3.518 4.248 2.739 0 3.594-1.781 3.594-4.229v.003ZM48.545 11.249v7.524h-1.34V6.271h1.34v1.701a3.172 3.172 0 0 1 1.257-1.417c.55-.33 1.187-.48 1.824-.43a3.893 3.893 0 0 1 1.937.407c.602.301 1.12.753 1.505 1.314l-1.122.845a2.877 2.877 0 0 0-1.064-.957 2.804 2.804 0 0 0-1.383-.316c-1.908 0-2.954 1.556-2.954 3.83ZM60.964 18.919c-3.157 0-4.964-2.003-4.964-5.503v-1.82c0-3.55 1.835-5.474 4.964-5.474 3.129 0 4.964 1.925 4.964 5.473v1.821c0 3.403-1.693 5.503-4.964 5.503Zm3.614-7.32c0-2.731-1.296-4.2-3.614-4.2-2.348 0-3.623 1.468-3.623 4.2v1.82c0 2.625 1.15 4.23 3.623 4.23 2.368 0 3.614-1.605 3.614-4.23V11.6ZM77.682 18.773h-1.344V17.09c-.665 1.177-1.787 1.828-3.623 1.828-2.71 0-4.47-1.702-4.47-5.25V6.271h1.34v7.397c0 2.83 1.389 3.947 3.272 3.947 2.33 0 3.48-1.572 3.48-3.85V6.271h1.345v12.502ZM90.348 13.397c0 3.422-1.588 5.522-4.764 5.522-1.862 0-3.015-.525-3.7-1.624v6.222h-1.34V6.27h1.34v1.572c.685-1.128 1.836-1.72 3.7-1.72 3.024 0 4.764 1.924 4.764 5.473v1.801Zm-1.34 0v-1.798c0-2.731-1.199-4.2-3.528-4.2-2.59 0-3.595 1.594-3.595 4.044v2.177c.029 2.353.913 4.025 3.595 4.025 2.35 0 3.527-1.624 3.527-4.248Z"/></g><defs><clipPath id="a"><path fill="#fff" transform="translate(.667)" d="M0 0h90.667v24H0z"/></clipPath></defs></svg>