<svg width="52" height="32" viewBox="0 0 52 32" fill="none" xmlns="http://www.w3.org/2000/svg"><path fill-rule="evenodd" clip-rule="evenodd" d="M51.25 3.017v17.908c0 2.488-2.488 2.488-2.488 2.488H46.81l-6.133 8.058v-8.058H3.238C.75 23.413.75 20.925.75 20.925V3.017C.75.529 3.238.529 3.238.529h45.524c2.488 0 2.488 2.488 2.488 2.488Zm-4.373 2.168-5.867 6.433 5.973 6.766-3.851-.007-5.977-6.759 3.715-3.79h-5.415V5.185h11.422ZM33.845 18.379h-2.78v-5.551l-3.987 5.329-3.985-5.33v5.552H20.31V5.185l6.767 8.34 6.767-8.34v13.194ZM18.44 11.783c0 1.849-.658 3.43-1.974 4.741-1.316 1.314-2.895 1.971-4.738 1.971-1.848 0-3.428-.657-4.741-1.97-1.313-1.313-1.97-2.893-1.97-4.742 0-1.843.657-3.422 1.97-4.737 1.313-1.316 2.893-1.972 4.741-1.972 1.843 0 3.422.656 4.738 1.972 1.316 1.315 1.974 2.894 1.974 4.737Zm-3.868 2.844c.79-.786 1.187-1.733 1.187-2.844 0-1.104-.396-2.053-1.187-2.842-.791-.792-1.74-1.188-2.844-1.188-1.11 0-2.056.396-2.843 1.188-.785.79-1.178 1.738-1.178 2.842 0 1.11.393 2.058 1.178 2.844.787.786 1.733 1.178 2.843 1.178 1.105 0 2.053-.392 2.844-1.178Z" fill="#666"/></svg>