<svg width="100" height="20" viewBox="0 0 100 20" fill="none" xmlns="http://www.w3.org/2000/svg"><path d="M81.168 10.415h-4.363a.619.619 0 0 0-.767.64.625.625 0 0 0 .753.634h3.588v4.926a9.303 9.303 0 0 1-4.222.887c-4.144 0-6.692-2.998-6.692-7.326 0-4.124 2.414-7.699 6.404-7.699 1.605.046 3.14.671 4.32 1.76.147.171.353.28.578.302a.654.654 0 0 0 .556-.605.802.802 0 0 0-.36-.62 7.783 7.783 0 0 0-5.165-2.11c-4.686 0-7.543 4.039-7.543 8.909 0 5.144 3.033 8.655 7.93 8.655 1.59 0 3.702-.281 4.983-1.055a.817.817 0 0 0 .422-.866v-5.96a.402.402 0 0 0-.422-.472Zm-19.17-9s-4.834 6.657-5.924 8.177a1.562 1.562 0 0 0-.444 1.196v7.262a.703.703 0 1 0 1.351 0v-6.994c-.026-.25.039-.5.183-.704l5.933-8.142a.704.704 0 0 0-1.098-.795Zm-14.2.063a.647.647 0 0 0-.415-.19h-11.35a1.112 1.112 0 0 0-.705.176.521.521 0 0 0-.197.436.52.52 0 0 0 .19.444c.211.128.458.185.704.162h10.028L35.16 17.544c-.14.154-.229.348-.254.556a.5.5 0 0 0 .218.4c.141.105.311.161.486.163h11.407c.247.022.494-.038.704-.17a.578.578 0 0 0 0-.879 1.119 1.119 0 0 0-.704-.169H36.785L47.777 2.428h.042-.042a.921.921 0 0 0 .225-.52.599.599 0 0 0-.204-.43Zm50.336-.211a.704.704 0 0 0-.943.148s-4.834 6.657-5.925 8.177a1.562 1.562 0 0 0-.437 1.203v7.255a.704.704 0 1 0 1.352 0v-6.994a1.028 1.028 0 0 1 .183-.662l5.925-8.177a.704.704 0 0 0-.155-.957v.007Zm-88.076 8.24-2.765-.415c-2.266-.345-3.737-1.604-3.737-3.089 0-2.569 2.07-3.519 4.391-3.519h.064c2.11 0 4.651 1.133 4.651 3.484a.633.633 0 1 0 1.253 0c0-2.611-2.111-4.504-5.897-4.708-3.11-.056-5.686 1.548-5.686 4.722 0 2.533 2.526 4.011 4.799 4.363l2.759.422c1.555.253 3.342 1.203 3.342 3.082 0 2.548-2.815 3.596-5.123 3.596-2.716 0-5.257-1.463-5.257-3.99a.605.605 0 0 0-.626-.704.605.605 0 0 0-.626.746c0 2.738 2.364 5.215 6.516 5.215 4.708 0 6.334-2.97 6.334-4.849.014-2.498-2.21-4.004-4.392-4.356ZM28.25 1.415s-4.834 6.657-5.925 8.177a1.562 1.562 0 0 0-.472 1.196v7.262a.703.703 0 1 0 1.352 0v-6.994a1.027 1.027 0 0 1 .21-.704L29.34 2.21a.704.704 0 0 0-1.09-.795Z" fill="#666"/></svg>