<svg width="116" height="26" viewBox="0 0 116 26" fill="none" xmlns="http://www.w3.org/2000/svg"><path d="M34.403 17.503h-1.76v-1.59c-.549 1.132-1.567 1.637-2.904 1.653-1.861 0-2.978-1.195-2.978-3.135V9.37h1.755v4.57c0 1.223.722 1.96 1.897 1.96 1.407-.032 2.23-1.114 2.23-2.536V9.37h1.76v8.132Zm7.873-7.383-.643 1.301a4.792 4.792 0 0 0-2.351-.721c-.686 0-1.176.231-1.176.811 0 1.497 4.31.69 4.31 3.637 0 1.666-1.484 2.418-3.134 2.418a5.024 5.024 0 0 1-3.269-1.133l.623-1.254c.774.638 1.741.994 2.744 1.011.748 0 1.328-.262 1.328-.874 0-1.665-4.28-.732-4.264-3.668 0-1.65 1.435-2.351 2.994-2.351a5.164 5.164 0 0 1 2.838.823Zm9.237 3.99h-6.141a2.477 2.477 0 0 0 2.523 2.033 3.162 3.162 0 0 0 2.293-.948l.933.995a4.437 4.437 0 0 1-3.363 1.376c-2.508 0-4.158-1.67-4.158-4.115 0-2.445 1.697-4.127 4.111-4.138 2.857 0 4.021 1.861 3.802 4.796Zm-1.529-1.282c-.062-1.317-.932-2.112-2.261-2.112a2.316 2.316 0 0 0-2.387 2.112h4.648Zm5.126-1.838a2.955 2.955 0 0 1 2.81-1.677v1.677c-1.634-.09-2.673.874-2.81 2.265v4.248h-1.76V9.371h1.76v1.619Zm10.903-.38-.659.842a3.39 3.39 0 0 0-2.402-.932c-1.666 0-2.857 1.207-2.857 2.962 0 1.756 1.176 2.983 2.857 2.983a3.136 3.136 0 0 0 2.504-1.023l.69.737a4.052 4.052 0 0 1-3.225 1.39c-2.352 0-3.99-1.669-3.99-4.067s1.666-4.064 3.99-4.064a4.13 4.13 0 0 1 3.092 1.172Zm8.86 3.33h-6.572a2.818 2.818 0 0 0 2.92 2.568 3.355 3.355 0 0 0 2.488-1.007l.659.705a4.24 4.24 0 0 1-3.241 1.344c-2.352 0-4.005-1.67-4.005-4.068 0-2.398 1.653-4.064 3.985-4.064 2.602-.015 3.888 1.788 3.766 4.523Zm-1.07-.975c-.078-1.544-1.116-2.524-2.692-2.524a2.72 2.72 0 0 0-2.81 2.524h5.502Zm10.092-.431v4.97h-1.176v-4.649c0-1.418-.854-2.26-2.277-2.26-1.591 0-2.567 1.053-2.704 2.582v4.31h-1.176V9.45h1.176v1.771c.564-1.223 1.65-1.803 3.135-1.818 1.893 0 3.022 1.191 3.022 3.131Zm6.415 4.42a3.381 3.381 0 0 1-1.818.612c-1.176 0-2.05-.706-2.05-2.293v-4.6h-1.176v-.965h1.176V7.604h1.176v2.124h2.55v.98h-2.55v4.342c0 .98.392 1.344 1.066 1.344a2.441 2.441 0 0 0 1.285-.411l.34.971Zm3.398-5.717A3.014 3.014 0 0 1 96.6 9.403v1.207c-1.697-.031-2.743 1.023-2.892 2.614v4.28h-1.176V9.45h1.176v1.787Zm6.246-4.095a.784.784 0 1 1-1.567 0 .784.784 0 0 1 1.567 0Zm-1.36 10.361V9.45h1.176v8.053h-1.175Zm9.974-6.893-.658.842a3.388 3.388 0 0 0-2.399-.932c-1.669 0-2.86 1.207-2.86 2.962 0 1.756 1.175 2.983 2.86 2.983A3.135 3.135 0 0 0 108 15.442l.69.737a4.055 4.055 0 0 1-3.226 1.39c-2.351 0-3.989-1.669-3.989-4.067s1.665-4.064 3.989-4.064a4.13 4.13 0 0 1 3.104 1.172Zm6.999-.474-.458.948a4.278 4.278 0 0 0-2.187-.658c-.901 0-1.587.321-1.587 1.07 0 1.787 4.491.873 4.491 3.762 0 1.567-1.407 2.292-2.947 2.292a4.545 4.545 0 0 1-3.088-1.132l.458-.902a4.067 4.067 0 0 0 2.673 1.023c.948 0 1.713-.349 1.728-1.144.047-1.96-4.463-.949-4.448-3.806 0-1.543 1.329-2.186 2.798-2.186a4.664 4.664 0 0 1 2.567.733ZM13.726 18.28a5.095 5.095 0 1 0 0-10.19 5.095 5.095 0 0 0 0 10.19ZM24.174 4.86a1.96 1.96 0 1 0 0-3.918 1.96 1.96 0 0 0 0 3.919ZM20.26 25.058a3.527 3.527 0 1 0 0-7.054 3.527 3.527 0 0 0 0 7.054ZM2.918 20.207a2.743 2.743 0 1 0 0-5.486 2.743 2.743 0 0 0 0 5.486Z" fill="#666"/></svg>